<?xml version="1.0" encoding="utf-8"?>
<svg xmlns="http://www.w3.org/2000/svg" xmlns:xlink="http://www.w3.org/1999/xlink" version="1.1" style="width:0;height:0;position:absolute;overflow:hidden;">
  <defs>
<symbol viewBox="0 0 1664 1664" aria-labelledby="sfsi-awesome-search-title" id="si-awesome-search"><title id="sfsi-awesome-search-title">icon search</title><path d="M1152 704q0-185-131.5-316.5T704 256 387.5 387.5 256 704t131.5 316.5T704 1152t316.5-131.5T1152 704zm512 832q0 52-38 90t-90 38q-54 0-90-38l-343-342q-179 124-399 124-143 0-273.5-55.5t-225-150-150-225T0 704t55.5-273.5 150-225 225-150T704 0t273.5 55.5 225 150 150 225T1408 704q0 220-124 399l343 343q37 37 37 90z"/></symbol>
<symbol viewBox="0 0 1536 1408" aria-labelledby="tdsi-awesome-sliders-title" id="si-awesome-sliders"><title id="tdsi-awesome-sliders-title">icon sliders</title><path d="M352 1152v128H0v-128h352zm352-128q26 0 45 19t19 45v256q0 26-19 45t-45 19H448q-26 0-45-19t-19-45v-256q0-26 19-45t45-19h256zm160-384v128H0V640h864zM224 128v128H0V128h224zm1312 1024v128H800v-128h736zM576 0q26 0 45 19t19 45v256q0 26-19 45t-45 19H320q-26 0-45-19t-19-45V64q0-26 19-45t45-19h256zm640 512q26 0 45 19t19 45v256q0 26-19 45t-45 19H960q-26 0-45-19t-19-45V576q0-26 19-45t45-19h256zm320 128v128h-224V640h224zm0-512v128H672V128h864z"/></symbol>
<symbol viewBox="0 0 1632.3333740234375 1792" aria-labelledby="tksi-awesome-sort-alpha-asc-title" id="si-awesome-sort-alpha-asc"><title id="tksi-awesome-sort-alpha-asc-title">icon sort-alpha-asc</title><path d="M1162.333 408h177l-72-218-12-47q-2-16-2-20h-4l-3 20q0 1-3.5 18t-7.5 29zm-455 1032q0 12-10 24l-319 319q-10 9-23 9-12 0-23-9l-320-320q-15-16-7-35 8-20 30-20h192V32q0-14 9-23t23-9h192q14 0 23 9t9 23v1376h192q14 0 23 9t9 23zm836 119v233h-584v-90l369-529q12-18 21-27l11-9v-3q-2 0-6.5.5t-7.5.5q-12 3-30 3h-232v115h-120v-229h567v89l-369 530q-6 8-21 26l-11 11v2l14-2q9-2 30-2h248v-119h121zm89-897v106h-288V662h75l-47-144h-243l-47 144h75v106h-287V662h70l230-662h162l230 662h70z"/></symbol>
<symbol viewBox="0 0 1664 1587" aria-labelledby="uesi-awesome-star-o-title" id="si-awesome-star-o"><title id="uesi-awesome-star-o-title">icon star-o</title><path d="M1137 972l306-297-422-62-189-382-189 382-422 62 306 297-73 421 378-199 377 199zm527-357q0 22-26 48l-363 354 86 500q1 7 1 20 0 50-41 50-19 0-40-12l-449-236-449 236q-22 12-40 12-21 0-31.5-14.5T301 1537q0-6 2-20l86-500L25 663Q0 636 0 615q0-37 56-46l502-73L783 41q19-41 49-41t49 41l225 455 502 73q56 9 56 46z"/></symbol>
<symbol viewBox="0 0 1664 1587" aria-labelledby="ubsi-awesome-star-title" id="si-awesome-star"><title id="ubsi-awesome-star-title">icon star</title><path d="M1664 615q0 22-26 48l-363 354 86 500q1 7 1 20 0 21-10.5 35.5T1321 1587q-19 0-40-12l-449-236-449 236q-22 12-40 12-21 0-31.5-14.5T301 1537q0-6 2-20l86-500L25 663Q0 636 0 615q0-37 56-46l502-73L783 41q19-41 49-41t49 41l225 455 502 73q56 9 56 46z"/></symbol>
  </defs>
</svg>
