<svg xmlns="http://www.w3.org/2000/svg" id="tabler-icons"><defs><symbol id="tabler-filled-brand-facebook" viewBox="0 0 24 24" fill="currentColor" stroke="none" stroke-width="2" stroke-linecap="round" stroke-linejoin="round"><path d="M18 2a1 1 0 0 1 .993 .883l.007 .117v4a1 1 0 0 1 -.883 .993l-.117 .007h-3v1h3a1 1 0 0 1 .991 1.131l-.02 .112l-1 4a1 1 0 0 1 -.858 .75l-.113 .007h-2v6a1 1 0 0 1 -.883 .993l-.117 .007h-4a1 1 0 0 1 -.993 -.883l-.007 -.117v-6h-2a1 1 0 0 1 -.993 -.883l-.007 -.117v-4a1 1 0 0 1 .883 -.993l.117 -.007h2v-1a6 6 0 0 1 5.775 -5.996l.225 -.004h3z" /></symbol><symbol id="tabler-filled-brand-instagram" viewBox="0 0 24 24" fill="currentColor" stroke="none" stroke-width="2" stroke-linecap="round" stroke-linejoin="round"><path d="M16 3a5 5 0 0 1 5 5v8a5 5 0 0 1 -5 5h-8a5 5 0 0 1 -5 -5v-8a5 5 0 0 1 5 -5zm-4 5a4 4 0 0 0 -3.995 3.8l-.005 .2a4 4 0 1 0 4 -4m4.5 -1.5a1 1 0 0 0 -.993 .883l-.007 .127a1 1 0 0 0 1.993 .117l.007 -.127a1 1 0 0 0 -1 -1" /></symbol><symbol id="tabler-filled-brand-messenger" viewBox="0 0 24 24" fill="currentColor" stroke="none" stroke-width="2" stroke-linecap="round" stroke-linejoin="round"><path d="M18.894 5.446c3.667 3.127 4.168 8.238 1.152 11.897c-2.842 3.447 -7.965 4.583 -12.231 2.805l-.233 -.101l-4.374 .931l-.033 .005l-.042 .008l-.031 .002l-.01 .003h-.018l-.052 .004l-.024 -.001l-.02 .001l-.033 -.003h-.035l-.022 -.004l-.022 -.002l-.035 -.007l-.034 -.005l-.016 -.004l-.024 -.005l-.049 -.016l-.024 -.005l-.011 -.005l-.022 -.007l-.045 -.02l-.03 -.012l-.011 -.006l-.014 -.006l-.031 -.018l-.045 -.024l-.016 -.011l-.037 -.026l-.04 -.027l-.015 -.013l-.043 -.04l-.025 -.02l-.062 -.07l-.013 -.013l-.011 -.014l-.027 -.04l-.026 -.035a1 1 0 0 1 -.054 -.095l-.006 -.013l-.019 -.045l-.02 -.042l-.004 -.016l-.004 -.01l-.011 -.04l-.013 -.04l-.002 -.014l-.005 -.019l-.005 -.033l-.008 -.042l-.002 -.031l-.003 -.026l-.004 -.054l.001 -.036l.001 -.023l.002 -.053l.004 -.025v-.019l.008 -.036l.005 -.033l.004 -.017l.005 -.023l.018 -.06l.003 -.013l1.15 -3.45l-.022 -.037c-2.21 -3.747 -1.209 -8.392 2.411 -11.118l.23 -.168c3.898 -2.766 9.469 -2.54 13.073 .535m-2.062 5a1 1 0 0 0 -1.387 -.278l-2.318 1.544l-1.42 -1.42a1 1 0 0 0 -1.262 -.124l-3 2a1 1 0 0 0 -.277 1.387l.07 .093a1 1 0 0 0 1.317 .184l2.317 -1.545l1.42 1.42a1 1 0 0 0 1.263 .125l3 -2a1 1 0 0 0 .277 -1.387" /></symbol><symbol id="tabler-filled-brand-whatsapp" viewBox="0 0 24 24" fill="currentColor" stroke="none" stroke-width="2" stroke-linecap="round" stroke-linejoin="round"><path d="M18.497 4.409a10 10 0 0 1 -10.36 16.828l-.223 -.098l-4.759 .849l-.11 .011a1 1 0 0 1 -.11 0l-.102 -.013l-.108 -.024l-.105 -.037l-.099 -.047l-.093 -.058l-.014 -.011l-.012 -.007l-.086 -.073l-.077 -.08l-.067 -.088l-.056 -.094l-.034 -.07l-.04 -.108l-.028 -.128l-.012 -.102a1 1 0 0 1 0 -.125l.012 -.1l.024 -.11l.045 -.122l1.433 -3.304l-.009 -.014a10 10 0 0 1 1.549 -12.454l.215 -.203a10 10 0 0 1 13.226 -.217m-8.997 3.09a1.5 1.5 0 0 0 -1.5 1.5v1a6 6 0 0 0 6 6h1a1.5 1.5 0 0 0 0 -3h-1l-.144 .007a1.5 1.5 0 0 0 -1.128 .697l-.042 .074l-.022 -.007a4.01 4.01 0 0 1 -2.435 -2.435l-.008 -.023l.075 -.041a1.5 1.5 0 0 0 .704 -1.272v-1a1.5 1.5 0 0 0 -1.5 -1.5" /></symbol><symbol id="tabler-filled-device-mobile" viewBox="0 0 24 24" fill="currentColor" stroke="none" stroke-width="2" stroke-linecap="round" stroke-linejoin="round"><path d="M16 2a3 3 0 0 1 2.995 2.824l.005 .176v14a3 3 0 0 1 -2.824 2.995l-.176 .005h-8a3 3 0 0 1 -2.995 -2.824l-.005 -.176v-14a3 3 0 0 1 2.824 -2.995l.176 -.005h8zm-4 14a1 1 0 0 0 -.993 .883l-.007 .117l.007 .127a1 1 0 0 0 1.986 0l.007 -.117l-.007 -.127a1 1 0 0 0 -.993 -.883zm1 -12h-2l-.117 .007a1 1 0 0 0 0 1.986l.117 .007h2l.117 -.007a1 1 0 0 0 0 -1.986l-.117 -.007z" /></symbol><symbol id="tabler-filled-home" viewBox="0 0 24 24" fill="currentColor" stroke="none" stroke-width="2" stroke-linecap="round" stroke-linejoin="round"><path d="M12.707 2.293l9 9c.63 .63 .184 1.707 -.707 1.707h-1v6a3 3 0 0 1 -3 3h-1v-7a3 3 0 0 0 -2.824 -2.995l-.176 -.005h-2a3 3 0 0 0 -3 3v7h-1a3 3 0 0 1 -3 -3v-6h-1c-.89 0 -1.337 -1.077 -.707 -1.707l9 -9a1 1 0 0 1 1.414 0m.293 11.707a1 1 0 0 1 1 1v7h-4v-7a1 1 0 0 1 .883 -.993l.117 -.007z" /></symbol><symbol id="tabler-filled-mail" viewBox="0 0 24 24" fill="currentColor" stroke="none" stroke-width="2" stroke-linecap="round" stroke-linejoin="round"><path d="M22 7.535v9.465a3 3 0 0 1 -2.824 2.995l-.176 .005h-14a3 3 0 0 1 -2.995 -2.824l-.005 -.176v-9.465l9.445 6.297l.116 .066a1 1 0 0 0 .878 0l.116 -.066l9.445 -6.297z" /><path d="M19 4c1.08 0 2.027 .57 2.555 1.427l-9.555 6.37l-9.555 -6.37a2.999 2.999 0 0 1 2.354 -1.42l.201 -.007h14z" /></symbol><symbol id="tabler-filled-phone" viewBox="0 0 24 24" fill="currentColor" stroke="none" stroke-width="2" stroke-linecap="round" stroke-linejoin="round"><path d="M9 3a1 1 0 0 1 .877 .519l.051 .11l2 5a1 1 0 0 1 -.313 1.16l-.1 .068l-1.674 1.004l.063 .103a10 10 0 0 0 3.132 3.132l.102 .062l1.005 -1.672a1 1 0 0 1 1.113 -.453l.115 .039l5 2a1 1 0 0 1 .622 .807l.007 .121v4c0 1.657 -1.343 3 -3.06 2.998c-8.579 -.521 -15.418 -7.36 -15.94 -15.998a3 3 0 0 1 2.824 -2.995l.176 -.005h4z" /></symbol><symbol id="tabler-filled-star" viewBox="0 0 24 24" fill="currentColor" stroke="none" stroke-width="2" stroke-linecap="round" stroke-linejoin="round"><path d="M8.243 7.34l-6.38 .925l-.113 .023a1 1 0 0 0 -.44 1.684l4.622 4.499l-1.09 6.355l-.013 .11a1 1 0 0 0 1.464 .944l5.706 -3l5.693 3l.1 .046a1 1 0 0 0 1.352 -1.1l-1.091 -6.355l4.624 -4.5l.078 -.085a1 1 0 0 0 -.633 -1.62l-6.38 -.926l-2.852 -5.78a1 1 0 0 0 -1.794 0l-2.853 5.78z" /></symbol></defs></svg>