<svg xmlns="http://www.w3.org/2000/svg" id="tabler-icons">
	<defs>
		<symbol id="tabler-adjustments-horizontal" viewBox="0 0 24 24" fill="none" stroke="currentColor" stroke-width="2" stroke-linecap="round" stroke-linejoin="round">
			<path d="M14 6m-2 0a2 2 0 1 0 4 0a2 2 0 1 0 -4 0" />
			<path d="M4 6l8 0" />
			<path d="M16 6l4 0" />
			<path d="M8 12m-2 0a2 2 0 1 0 4 0a2 2 0 1 0 -4 0" />
			<path d="M4 12l2 0" />
			<path d="M10 12l10 0" />
			<path d="M17 18m-2 0a2 2 0 1 0 4 0a2 2 0 1 0 -4 0" />
			<path d="M4 18l11 0" />
			<path d="M19 18l1 0" />
		</symbol>
		<symbol id="tabler-brand-facebook" viewBox="0 0 24 24" fill="none" stroke="currentColor" stroke-width="2" stroke-linecap="round" stroke-linejoin="round">
			<path d="M7 10v4h3v7h4v-7h3l1 -4h-4v-2a1 1 0 0 1 1 -1h3v-4h-3a5 5 0 0 0 -5 5v2h-3" />
		</symbol>
		<symbol id="tabler-brand-instagram" viewBox="0 0 24 24" fill="none" stroke="currentColor" stroke-width="2" stroke-linecap="round" stroke-linejoin="round">
			<path d="M4 8a4 4 0 0 1 4 -4h8a4 4 0 0 1 4 4v8a4 4 0 0 1 -4 4h-8a4 4 0 0 1 -4 -4z" />
			<path d="M9 12a3 3 0 1 0 6 0a3 3 0 0 0 -6 0" />
			<path d="M16.5 7.5v.01" />
		</symbol>
		<symbol id="tabler-brand-messenger" viewBox="0 0 24 24" fill="none" stroke="currentColor" stroke-width="2" stroke-linecap="round" stroke-linejoin="round">
			<path d="M3 20l1.3 -3.9a9 8 0 1 1 3.4 2.9l-4.7 1" />
			<path d="M8 13l3 -2l2 2l3 -2" />
		</symbol>
		<symbol id="tabler-brand-whatsapp" viewBox="0 0 24 24" fill="none" stroke="currentColor" stroke-width="2" stroke-linecap="round" stroke-linejoin="round">
			<path d="M3 21l1.65 -3.8a9 9 0 1 1 3.4 2.9l-5.05 .9" />
			<path d="M9 10a.5 .5 0 0 0 1 0v-1a.5 .5 0 0 0 -1 0v1a5 5 0 0 0 5 5h1a.5 .5 0 0 0 0 -1h-1a.5 .5 0 0 0 0 1" />
		</symbol>
		<symbol id="tabler-device-mobile" viewBox="0 0 24 24" fill="none" stroke="currentColor" stroke-width="2" stroke-linecap="round" stroke-linejoin="round">
			<path d="M6 5a2 2 0 0 1 2 -2h8a2 2 0 0 1 2 2v14a2 2 0 0 1 -2 2h-8a2 2 0 0 1 -2 -2v-14z" />
			<path d="M11 4h2" />
			<path d="M12 17v.01" />
		</symbol>
		<symbol id="tabler-help" viewBox="0 0 24 24" fill="none" stroke="currentColor" stroke-width="2" stroke-linecap="round" stroke-linejoin="round">
			<path stroke="none" d="M0 0h24v24H0z" fill="none"/>
			<path d="M12 12m-9 0a9 9 0 1 0 18 0a9 9 0 1 0 -18 0" />
			<path d="M12 17l0 .01" />
			<path d="M12 13.5a1.5 1.5 0 0 1 1 -1.5a2.6 2.6 0 1 0 -3 -4" />
		</symbol>
		<symbol id="tabler-home" viewBox="0 0 24 24" fill="none" stroke="currentColor" stroke-width="2" stroke-linecap="round" stroke-linejoin="round">
			<path d="M5 12l-2 0l9 -9l9 9l-2 0" />
			<path d="M5 12v7a2 2 0 0 0 2 2h10a2 2 0 0 0 2 -2v-7" />
			<path d="M9 21v-6a2 2 0 0 1 2 -2h2a2 2 0 0 1 2 2v6" />
		</symbol>
		<symbol id="tabler-mail" viewBox="0 0 24 24" fill="none" stroke="currentColor" stroke-width="2" stroke-linecap="round" stroke-linejoin="round">
			<path d="M3 7a2 2 0 0 1 2 -2h14a2 2 0 0 1 2 2v10a2 2 0 0 1 -2 2h-14a2 2 0 0 1 -2 -2v-10z" />
			<path d="M3 7l9 6l9 -6" />
		</symbol>
		<symbol id="tabler-menu-2" viewBox="0 0 24 24" fill="none" stroke="currentColor" stroke-width="2" stroke-linecap="round" stroke-linejoin="round">
			<path d="M4 6l16 0" />
			<path d="M4 12l16 0" />
			<path d="M4 18l16 0" />
		</symbol>
		<symbol id="tabler-pencil" viewBox="0 0 24 24" fill="none" stroke="currentColor" stroke-width="2" stroke-linecap="round" stroke-linejoin="round">
			<path d="M4 20h4l10.5 -10.5a2.828 2.828 0 1 0 -4 -4l-10.5 10.5v4" />
			<path d="M13.5 6.5l4 4" />
		</symbol>
		<symbol id="tabler-phone" viewBox="0 0 24 24" fill="none" stroke="currentColor" stroke-width="2" stroke-linecap="round" stroke-linejoin="round">
			<path d="M5 4h4l2 5l-2.5 1.5a11 11 0 0 0 5 5l1.5 -2.5l5 2v4a2 2 0 0 1 -2 2a16 16 0 0 1 -15 -15a2 2 0 0 1 2 -2" />
		</symbol>
		<symbol id="tabler-plus" viewBox="0 0 24 24" fill="none" stroke="currentColor" stroke-width="2" stroke-linecap="round" stroke-linejoin="round">
			<path d="M12 5l0 14" />
			<path d="M5 12l14 0" />
		</symbol>
		<symbol id="tabler-search" viewBox="0 0 24 24" fill="none" stroke="currentColor" stroke-width="2" stroke-linecap="round" stroke-linejoin="round">
			<path d="M10 10m-7 0a7 7 0 1 0 14 0a7 7 0 1 0 -14 0" />
			<path d="M21 21l-6 -6" />
		</symbol>
		<symbol id="tabler-star" viewBox="0 0 24 24" fill="none" stroke="currentColor" stroke-width="2" stroke-linecap="round" stroke-linejoin="round">
			<path d="M12 17.75l-6.172 3.245l1.179 -6.873l-5 -4.867l6.9 -1l3.086 -6.253l3.086 6.253l6.9 1l-5 4.867l1.179 6.873z" />
		</symbol>
		<symbol id="tabler-x" viewBox="0 0 24 24" fill="none" stroke="currentColor" stroke-width="2"  stroke-linecap="round"  stroke-linejoin="round">
			<path stroke="none" d="M0 0h24v24H0z" fill="none"/><path d="M18 6l-12 12" /><path d="M6 6l12 12" />
		</symbol>
	</defs>
</svg>