<svg xmlns="http://www.w3.org/2000/svg" id="tabler-icons"><defs><symbol id="tabler-adjustments-horizontal" viewBox="0 0 24 24" fill="none" stroke="currentColor" stroke-width="2" stroke-linecap="round" stroke-linejoin="round"><path d="M14 6m-2 0a2 2 0 1 0 4 0a2 2 0 1 0 -4 0" /><path d="M4 6l8 0" /><path d="M16 6l4 0" /><path d="M8 12m-2 0a2 2 0 1 0 4 0a2 2 0 1 0 -4 0" /><path d="M4 12l2 0" /><path d="M10 12l10 0" /><path d="M17 18m-2 0a2 2 0 1 0 4 0a2 2 0 1 0 -4 0" /><path d="M4 18l11 0" /><path d="M19 18l1 0" /></symbol><symbol id="tabler-home" viewBox="0 0 24 24" fill="none" stroke="currentColor" stroke-width="2" stroke-linecap="round" stroke-linejoin="round"><path d="M5 12l-2 0l9 -9l9 9l-2 0" /><path d="M5 12v7a2 2 0 0 0 2 2h10a2 2 0 0 0 2 -2v-7" /><path d="M9 21v-6a2 2 0 0 1 2 -2h2a2 2 0 0 1 2 2v6" /></symbol><symbol id="tabler-menu-2" viewBox="0 0 24 24" fill="none" stroke="currentColor" stroke-width="2" stroke-linecap="round" stroke-linejoin="round"><path d="M4 6l16 0" /><path d="M4 12l16 0" /><path d="M4 18l16 0" /></symbol><symbol id="tabler-pencil" viewBox="0 0 24 24" fill="none" stroke="currentColor" stroke-width="2" stroke-linecap="round" stroke-linejoin="round"><path d="M4 20h4l10.5 -10.5a2.828 2.828 0 1 0 -4 -4l-10.5 10.5v4" /><path d="M13.5 6.5l4 4" /></symbol><symbol id="tabler-plus" viewBox="0 0 24 24" fill="none" stroke="currentColor" stroke-width="2" stroke-linecap="round" stroke-linejoin="round"><path d="M12 5l0 14" /><path d="M5 12l14 0" /></symbol><symbol id="tabler-search" viewBox="0 0 24 24" fill="none" stroke="currentColor" stroke-width="2" stroke-linecap="round" stroke-linejoin="round"><path d="M10 10m-7 0a7 7 0 1 0 14 0a7 7 0 1 0 -14 0" /><path d="M21 21l-6 -6" /></symbol><symbol id="tabler-star" viewBox="0 0 24 24" fill="none" stroke="currentColor" stroke-width="2" stroke-linecap="round" stroke-linejoin="round"><path d="M12 17.75l-6.172 3.245l1.179 -6.873l-5 -4.867l6.9 -1l3.086 -6.253l3.086 6.253l6.9 1l-5 4.867l1.179 6.873z" /></symbol></defs></svg>