<svg xmlns="http://www.w3.org/2000/svg" version="1.1" xmlns:xlink="http://www.w3.org/1999/xlink" width="300" height="300"><svg viewBox="0 0 300 300" width="300" height="300" version="1.1" id="SvgjsSvg1152" sodipodi:docname="logo.svg" inkscape:version="1.4.2 (f4327f4, 2025-05-13)" inkscape:export-filename="..\Desktop\logo.svg" inkscape:export-xdpi="96" inkscape:export-ydpi="96" xmlns:inkscape="http://www.inkscape.org/namespaces/inkscape" xmlns:sodipodi="http://sodipodi.sourceforge.net/DTD/sodipodi-0.dtd" xmlns="http://www.w3.org/2000/svg" xmlns:svg="http://www.w3.org/2000/svg">
  <sodipodi:namedview id="SvgjsSodipodi:namedview1151" pagecolor="#505050" bordercolor="#eeeeee" borderopacity="1" inkscape:showpageshadow="0" inkscape:pageopacity="0" inkscape:pagecheckerboard="0" inkscape:deskcolor="#505050" inkscape:zoom="1.8009513" inkscape:cx="112.71821" inkscape:cy="141.03657" inkscape:window-width="1440" inkscape:window-height="890" inkscape:window-x="-6" inkscape:window-y="-6" inkscape:window-maximized="1" inkscape:current-layer="svg6"></sodipodi:namedview>
  <defs id="SvgjsDefs1150"></defs>
  <g id="SvgjsG1149">
    <path d="M 25.000001,64.999998 V 234.81367 L 135,300 V 160 C 135,129.54521 108.88056,114.3636 25.000001,64.999998 Z" fill="#017fc0" id="SvgjsPath1148" sodipodi:nodetypes="ccccc" style="stroke:none;stroke-width:0;stroke-dasharray:none"></path>
    <path d="M 150,290 275,220.46718 V 45 C 171.33358,106.65504 150,128.50767 150,160 Z" fill="#01aaff" id="SvgjsPath1147" sodipodi:nodetypes="ccccc" style="stroke:none;stroke-width:0;stroke-dasharray:none"></path>
    <path d="m 255,20 v 20 c 0,0 -89.06466,41.913019 -112.5,90 C 106.30615,84.071319 40,59.999998 40,59.999998 V 40 C 71.969201,56.564961 115.83002,75.713116 142.5,110 163.53513,68.429511 219.27905,40.976984 255,20 Z" fill="#51b4ff" id="SvgjsPath1146" sodipodi:nodetypes="ccccccc" style="stroke:none;stroke-width:0;stroke-dasharray:none"></path>
    <path d="M 235,3.9981884e-7 V 15 c 0,0 -81.50371,47.018642 -92.5,75.000001 C 142.5,64.767229 164.53843,47.577644 235,3.9981884e-7 Z" fill="#79c0ff" id="SvgjsPath1145" sodipodi:nodetypes="cccc" style="stroke:none;stroke-width:0;stroke-dasharray:none"></path>
  </g>
</svg><style>@media (prefers-color-scheme: light) { :root { filter: none; } }
@media (prefers-color-scheme: dark) { :root { filter: none; } }
</style></svg>